<svg width="16" height="16" viewBox="0 0 16 16" fill="none" xmlns="http://www.w3.org/2000/svg">
<g clip-path="url(#clip0_116_503)">
<path d="M12.5803 12.6359C12.5803 12.8002 12.515 12.9578 12.3987 13.074C12.2824 13.1902 12.1247 13.2554 11.9603 13.2554H3.27975C3.11531 13.2554 2.9576 13.1902 2.84132 13.074C2.72504 12.9578 2.65972 12.8002 2.65972 12.6359V7.05978H0.799603L7.20273 1.2433C7.31689 1.13951 7.46568 1.08199 7.62002 1.08199C7.77436 1.08199 7.92315 1.13951 8.0373 1.2433L14.4404 7.05978H12.5803V12.6359ZM7.62002 10.7772L9.70273 8.69605C9.83227 8.5666 9.93503 8.41293 10.0051 8.2438C10.0753 8.07466 10.1113 7.89339 10.1113 7.71032C10.1113 7.52726 10.0753 7.34598 10.0051 7.17685C9.93503 7.00772 9.83227 6.85404 9.70273 6.72459C9.57318 6.59515 9.41938 6.49246 9.25012 6.42241C9.08086 6.35235 8.89945 6.31629 8.71624 6.31629C8.53304 6.31629 8.35163 6.35235 8.18237 6.42241C8.0131 6.49246 7.85931 6.59515 7.72976 6.72459L7.62002 6.83426L7.51027 6.72459C7.38072 6.59515 7.22693 6.49246 7.05767 6.42241C6.88841 6.35235 6.707 6.31629 6.52379 6.31629C6.34059 6.31629 6.15917 6.35235 5.98991 6.42241C5.82065 6.49246 5.66686 6.59515 5.53731 6.72459C5.40776 6.85404 5.305 7.00772 5.23489 7.17685C5.16478 7.34598 5.1287 7.52726 5.1287 7.71032C5.1287 7.89339 5.16478 8.07466 5.23489 8.2438C5.305 8.41293 5.40776 8.5666 5.53731 8.69605L7.62002 10.7772Z" fill="#F1B234"/>
</g>
<defs>
<clipPath id="clip0_116_503">
<rect width="14.8809" height="14.8696" fill="white" transform="translate(0.179565 0.244568)"/>
</clipPath>
</defs>
</svg>
