<svg width="13" height="13" viewBox="0 0 13 13" fill="none" xmlns="http://www.w3.org/2000/svg">
<g clip-path="url(#clip0_116_506)">
<path d="M9.45885 5.64061C7.65329 5.64061 6.18427 7.10852 6.18427 8.9127C6.18427 10.7169 7.65329 12.1848 9.45885 12.1848C11.2644 12.1848 12.7334 10.7169 12.7334 8.9127C12.7334 7.10852 11.2644 5.64061 9.45885 5.64061ZM9.39587 8.53515H9.52182C10.0427 8.53515 10.4664 8.95851 10.4664 9.47902C10.4664 9.88828 10.2024 10.2346 9.83668 10.365V10.5487C9.83668 10.7571 9.66741 10.9263 9.45885 10.9263C9.25028 10.9263 9.08101 10.7571 9.08101 10.5487V10.4229H8.82912C8.62055 10.4229 8.45128 10.2537 8.45128 10.0453C8.45128 9.83693 8.62055 9.66779 8.82912 9.66779H9.52182C9.6261 9.66779 9.71074 9.58322 9.71074 9.47902C9.71074 9.37482 9.6261 9.29024 9.52182 9.29024H9.39587C8.87496 9.29024 8.45128 8.86689 8.45128 8.34637C8.45128 7.93711 8.71527 7.59077 9.08101 7.46039V7.27665C9.08101 7.06825 9.25028 6.8991 9.45885 6.8991C9.66741 6.8991 9.83668 7.06825 9.83668 7.27665V7.4025H10.0886C10.2971 7.4025 10.4664 7.57164 10.4664 7.78005C10.4664 7.98846 10.2971 8.1576 10.0886 8.1576H9.39587C9.29159 8.1576 9.20696 8.24217 9.20696 8.34637C9.20696 8.45058 9.29159 8.53515 9.39587 8.53515Z" fill="#F1B234"/>
<path d="M9.20697 3.10199V1.10955C9.20697 0.831171 8.98128 0.606153 8.70319 0.606153C8.4251 0.606153 8.19941 0.831171 8.19941 1.10955V2.11735L6.28454 0.246224C6.08857 0.0544303 5.77572 0.0544303 5.58025 0.246224L0.86386 4.85331C0.723305 4.99527 0.6427 5.19008 0.6427 5.38842C0.6427 5.80473 0.981745 6.14351 1.39837 6.14351H2.15404V8.91219C2.15404 9.60638 2.71928 10.1707 3.41349 10.1707H4.67295C4.95103 10.1707 5.17673 9.94567 5.17673 9.66729C5.17673 9.38891 4.95103 9.16389 4.67295 9.16389H3.41349C3.27445 9.16389 3.1616 9.05063 3.1616 8.91219V5.64012C3.1616 5.36174 2.93591 5.13672 2.65782 5.13672H2.0145L5.9324 1.3099L9.23266 4.53466C9.43216 4.72947 9.75055 4.72595 9.94501 4.5266C10.1395 4.32776 10.1359 4.00911 9.93695 3.8148L9.20697 3.10199Z" fill="#F1B234"/>
</g>
<defs>
<clipPath id="clip0_116_506">
<rect width="12.0907" height="12.0815" fill="white" transform="translate(0.6427 0.103256)"/>
</clipPath>
</defs>
</svg>
